<?xml version="1.0" encoding="UTF-8"?>
<svg id="Layer_1" data-name="Layer 1" xmlns="http://www.w3.org/2000/svg" viewBox="0 0 1080 1080">
  <defs>
    <style>
      .cls-1 {
        fill: #fff;
      }
    </style>
  </defs>
  <g>
    <path class="cls-1" d="M493.09,540h-12.14l-3.52-11h-17.58l-3.48,11h-12.07l18-49.44h13.2l17.59,49.44ZM474.88,520.45l-5.31-16.61c-.39-1.24-.67-2.73-.83-4.45h-.27c-.12,1.45-.4,2.88-.87,4.31l-5.38,16.75h12.66Z"/>
    <path class="cls-1" d="M502.79,540v-49.44h18c5.52,0,9.77,1.01,12.73,3.03,2.96,2.02,4.45,4.87,4.45,8.55,0,2.66-.9,4.99-2.71,7-1.8,2-4.11,3.39-6.92,4.17v.14c3.52.43,6.33,1.74,8.43,3.89,2.1,2.16,3.15,4.79,3.15,7.9,0,4.53-1.62,8.13-4.86,10.78-3.24,2.66-7.66,3.98-13.28,3.98h-19ZM513.93,498.76v11.73h4.89c2.3,0,4.11-.56,5.43-1.68,1.32-1.11,1.98-2.65,1.98-4.6,0-3.63-2.71-5.45-8.14-5.45h-4.17ZM513.93,518.76v13.03h6.04c2.57,0,4.59-.6,6.05-1.79,1.46-1.19,2.19-2.83,2.19-4.89s-.72-3.53-2.15-4.66c-1.45-1.12-3.45-1.69-6.03-1.69h-6.1Z"/>
    <path class="cls-1" d="M551.59,540v-49.44h17.52c17.56,0,26.34,8.03,26.34,24.09,0,7.7-2.4,13.85-7.19,18.45-4.79,4.6-11.17,6.9-19.15,6.9h-17.52ZM562.73,499.63v31.34h5.51c4.83,0,8.61-1.46,11.36-4.35,2.75-2.9,4.13-6.85,4.13-11.83,0-4.71-1.36-8.42-4.08-11.12-2.73-2.7-6.55-4.04-11.47-4.04h-5.45Z"/>
    <path class="cls-1" d="M647.5,518.59c0,14.85-6.92,22.27-20.76,22.27s-20.14-7.25-20.14-21.76v-28.54h11.17v28.68c0,8,3.12,12,9.38,12s9.2-3.86,9.2-11.59v-29.1h11.14v28.03Z"/>
    <path class="cls-1" d="M691.23,540h-29.45v-49.44h11.14v40.41h18.31v9.03Z"/>
    <path class="cls-1" d="M744.9,540h-12.14l-3.52-11h-17.58l-3.48,11h-12.07l18-49.44h13.2l17.59,49.44ZM726.69,520.45l-5.31-16.61c-.39-1.24-.67-2.73-.83-4.45h-.27c-.12,1.45-.4,2.88-.87,4.31l-5.38,16.75h12.66Z"/>
    <path class="cls-1" d="M790.19,540h-39.83v-6.41l25.34-33.96h-23.51v-9.07h37.93v6.24l-24.79,34.18h24.86v9.03Z"/>
    <path class="cls-1" d="M830.64,540h-29.66v-49.44h28.52v9.07h-17.38v10.99h16.17v9.04h-16.17v11.31h18.51v9.03Z"/>
    <path class="cls-1" d="M857.39,490.56v8.61h-4.14v32.2h4.14v8.62h-19.41v-8.62h4.14v-32.2h-4.14v-8.61h19.41Z"/>
    <path class="cls-1" d="M903.61,540h-39.83v-6.41l25.34-33.96h-23.51v-9.07h37.93v6.24l-24.79,34.18h24.86v9.03Z"/>
  </g>
  <g>
    <path class="cls-1" d="M478.19,567.9h-17.44v12.13h16.04v9.03h-16.04v19.21h-11.14v-49.44h28.58v9.07Z"/>
    <path class="cls-1" d="M533.34,608.27h-12.14l-3.52-11h-17.58l-3.48,11h-12.07l18-49.44h13.2l17.59,49.44ZM515.13,588.72l-5.31-16.61c-.39-1.24-.67-2.73-.83-4.45h-.27c-.12,1.45-.4,2.88-.87,4.31l-5.38,16.75h12.66Z"/>
    <path class="cls-1" d="M543.04,608.27v-49.44h17.52c17.56,0,26.34,8.03,26.34,24.09,0,7.7-2.4,13.85-7.19,18.45-4.79,4.6-11.17,6.9-19.15,6.9h-17.52ZM554.18,567.9v31.34h5.51c4.83,0,8.61-1.46,11.36-4.35,2.75-2.9,4.13-6.85,4.13-11.83,0-4.71-1.36-8.42-4.08-11.12-2.73-2.7-6.55-4.04-11.47-4.04h-5.45Z"/>
    <path class="cls-1" d="M628.29,608.27h-29.66v-49.44h28.52v9.07h-17.38v10.99h16.17v9.04h-16.17v11.31h18.51v9.03Z"/>
    <path class="cls-1" d="M669.2,608.27h-29.45v-49.44h11.14v40.41h18.31v9.03Z"/>
  </g>
  <path class="cls-1" d="M429.19,497.44l25.49-46.2-47.47-.09-88.3-.22-44.15-.11-72.87,132.06-25.5,46.2,44.16.11,25.49-46.2,44.15.11-25.36,45.96,44.15.11,25.36-45.96,47.47.09,25.48-46.18-47.45-.11,21.89-39.68,47.46.11ZM315.69,536.9l-44.16-.11,21.89-39.66,44.15.11-21.88,39.66Z"/>
</svg>