<?xml version="1.0" encoding="UTF-8"?>
<svg id="Layer_1" data-name="Layer 1" xmlns="http://www.w3.org/2000/svg" viewBox="0 0 1080 313.48">
  <defs>
    <style>
      .cls-1 {
        fill: #f7f9f9;
      }
    </style>
  </defs>
  <g>
    <path class="cls-1" d="M475.41,156.74h-16.72l-4.84-15.15h-24.21l-4.79,15.15h-16.62l24.78-68.08h18.18l24.22,68.08ZM450.33,129.82l-7.31-22.87c-.54-1.71-.92-3.76-1.14-6.13h-.38c-.17,1.99-.56,3.97-1.2,5.93l-7.41,23.07h17.43Z"/>
    <path class="cls-1" d="M488.76,156.74v-68.08h24.78c7.6,0,13.45,1.39,17.53,4.18,4.08,2.78,6.13,6.71,6.13,11.78,0,3.66-1.24,6.88-3.73,9.63-2.48,2.76-5.65,4.66-9.52,5.74v.19c4.84.6,8.72,2.39,11.61,5.36,2.9,2.98,4.34,6.6,4.34,10.87,0,6.24-2.23,11.19-6.7,14.84-4.46,3.66-10.55,5.49-18.28,5.49h-26.16ZM504.1,99.96v16.15h6.74c3.16,0,5.65-.77,7.48-2.31,1.82-1.53,2.73-3.65,2.73-6.33,0-5-3.73-7.5-11.21-7.5h-5.74ZM504.1,127.49v17.95h8.31c3.54,0,6.32-.82,8.33-2.46,2-1.64,3.02-3.9,3.02-6.74s-.99-4.86-2.97-6.42c-1.99-1.55-4.75-2.32-8.3-2.32h-8.39Z"/>
    <path class="cls-1" d="M555.96,156.74v-68.08h24.13c24.18,0,36.27,11.05,36.27,33.18,0,10.61-3.3,19.07-9.9,25.41-6.6,6.33-15.38,9.49-26.37,9.49h-24.13ZM571.3,101.15v43.16h7.59c6.65,0,11.86-2,15.65-5.99,3.79-4,5.68-9.43,5.68-16.29,0-6.49-1.88-11.6-5.62-15.31-3.76-3.72-9.02-5.57-15.79-5.57h-7.5Z"/>
    <path class="cls-1" d="M688.02,127.26c0,20.45-9.52,30.67-28.58,30.67s-27.73-9.98-27.73-29.96v-39.3h15.38v39.5c0,11.01,4.3,16.53,12.92,16.53s12.67-5.32,12.67-15.95v-40.07h15.34v38.59Z"/>
    <path class="cls-1" d="M748.24,156.74h-40.55v-68.08h15.34v55.65h25.21v12.43Z"/>
    <path class="cls-1" d="M822.13,156.74h-16.72l-4.84-15.15h-24.21l-4.79,15.15h-16.62l24.78-68.08h18.18l24.22,68.08ZM797.06,129.82l-7.31-22.87c-.54-1.71-.92-3.76-1.14-6.13h-.38c-.17,1.99-.56,3.97-1.2,5.93l-7.41,23.07h17.43Z"/>
    <path class="cls-1" d="M884.49,156.74h-54.84v-8.83l34.89-46.76h-32.37v-12.49h52.22v8.59l-34.14,47.06h34.23v12.43Z"/>
    <path class="cls-1" d="M940.19,156.74h-40.83v-68.08h39.27v12.49h-23.93v15.13h22.26v12.45h-22.26v15.58h25.49v12.43Z"/>
    <path class="cls-1" d="M977.02,88.66v11.86h-5.69v44.34h5.69v11.88h-26.73v-11.88h5.69v-44.34h-5.69v-11.86h26.73Z"/>
    <path class="cls-1" d="M1040.65,156.74h-54.84v-8.83l34.89-46.76h-32.37v-12.49h52.22v8.59l-34.14,47.06h34.23v12.43Z"/>
  </g>
  <g>
    <path class="cls-1" d="M454.89,195.15h-24.02v16.71h22.08v12.43h-22.08v26.45h-15.34v-68.08h39.36v12.49Z"/>
    <path class="cls-1" d="M530.83,250.74h-16.72l-4.84-15.15h-24.21l-4.79,15.15h-16.62l24.78-68.08h18.18l24.22,68.08ZM505.76,223.82l-7.31-22.87c-.54-1.71-.92-3.76-1.14-6.13h-.38c-.17,1.99-.56,3.97-1.2,5.93l-7.41,23.07h17.43Z"/>
    <path class="cls-1" d="M544.18,250.74v-68.08h24.13c24.18,0,36.27,11.05,36.27,33.18,0,10.61-3.3,19.07-9.9,25.41-6.6,6.33-15.38,9.49-26.37,9.49h-24.13ZM559.52,195.15v43.16h7.59c6.65,0,11.86-2,15.65-5.99,3.79-4,5.68-9.43,5.68-16.29,0-6.49-1.88-11.6-5.62-15.31-3.76-3.72-9.02-5.57-15.79-5.57h-7.5Z"/>
    <path class="cls-1" d="M661.57,250.74h-40.83v-68.08h39.27v12.49h-23.93v15.13h22.26v12.45h-22.26v15.58h25.49v12.43Z"/>
    <path class="cls-1" d="M717.9,250.74h-40.55v-68.08h15.34v55.65h25.21v12.43Z"/>
  </g>
  <path class="cls-1" d="M387.42,98.14l35.11-63.61-65.36-.12-121.58-.3-60.8-.15-100.34,181.82-35.1,63.61,60.79.15,35.11-63.61,60.79.15-34.93,63.3,60.8.15,34.92-63.3,65.35.14,35.1-63.59-65.35-.17,30.15-54.62,65.33.15ZM231.14,152.46l-60.79-.15,30.13-54.59,60.79.15-30.13,54.59Z"/>
</svg>