<svg xmlns="http://www.w3.org/2000/svg" width="196" height="46" viewBox="0 0 196 46" fill="none"><g clip-path="url(#clip0_42_317)"><path d="M40.7049 18.8266H51.6669L60.5164 12.2367H32.9745L28.3277 0H17.3861L0 45.3873L14.7685 27.5863H30.9453C32.2567 31.1801 32.9285 34.9802 32.9285 38.8111V45.389H40.7049V32.6026H51.2621L59.4211 26.6431H40.7049V18.8283V18.8266ZM16.9575 21.6268L22.1162 7.45918H23.6011L28.758 21.6268H16.9575Z" fill="#001F3F"></path></g><path d="M80.0157 25.3088L79.6332 24.0197H75.0573L74.6607 25.3088H69.8582L74.0798 13.4088H80.5965L84.8182 25.3088H80.0157ZM76.0915 20.6055H78.599L77.7348 17.758H76.9557L76.0915 20.6055ZM96.4187 19.2455C97.4812 19.8688 98.147 20.6338 98.147 21.9513C98.147 23.8213 96.8153 25.3088 92.9478 25.3088H85.2412V13.4088H93.2595C96.9853 13.4088 97.8778 15.1088 97.8778 16.6388C97.8778 18.0413 97.1412 18.5372 96.4187 18.9905V19.2455ZM92.7212 16.9363H89.902V18.1547H92.7212C93.387 18.1547 93.4295 17.6872 93.4295 17.5597C93.4295 17.3755 93.387 16.9363 92.7212 16.9363ZM92.7637 21.7672C93.4153 21.7672 93.4437 21.243 93.4437 21.1438C93.4437 21.0305 93.4153 20.5347 92.7637 20.5347H89.902V21.7672H92.7637ZM105.173 13.4088C110.174 13.4088 111.831 15.9022 111.831 19.3588C111.831 22.7872 110.174 25.3088 105.173 25.3088H98.8544V13.4088H105.173ZM105.187 21.413C106.193 21.413 107.156 20.988 107.156 19.3588C107.156 17.7013 106.193 17.2905 105.187 17.2905H103.529V21.413H105.187ZM118.98 25.7055C114.602 25.7055 112.534 23.9488 112.534 19.968V13.4088H117.223V19.8547C117.223 21.0447 117.677 21.8097 118.98 21.8097C120.283 21.8097 120.779 21.0447 120.779 19.8547V13.4088H125.426V19.9255C125.426 23.9488 123.357 25.7055 118.98 25.7055ZM126.28 25.3088V13.4088H130.941V21.4272H136.948V25.3088H126.28ZM147.451 25.3088L147.069 24.0197H142.493L142.096 25.3088H137.294L141.515 13.4088H148.032L152.254 25.3088H147.451ZM143.527 20.6055H146.035L145.17 17.758H144.391L143.527 20.6055ZM152.464 25.3088V21.5688L157.961 17.6305V17.2763H152.578V13.4088H164.053V17.1347L158.457 21.0872V21.4272H163.968V25.3088H152.464ZM164.696 25.3088V13.4088H175.888V17.1063H169.357V17.8997H175.633V20.8322H169.357V21.6113H175.888V25.3088H164.696ZM176.732 25.3088V13.4088H181.393V25.3088H176.732ZM182.032 25.3088V21.5688L187.528 17.6305V17.2763H182.145V13.4088H193.62V17.1347L188.024 21.0872V21.4272H193.535V25.3088H182.032Z" fill="#001F3F"></path><path d="M69.6092 39.3089V27.4089H79.6108V29.7747H72.4283V32.5797H79.2142V34.7189H72.4283V39.3089H69.6092ZM89.0863 39.3089L88.3497 37.3114H82.4847L81.748 39.3089H78.8297L83.4338 27.4089H87.4005L92.0188 39.3089H89.0863ZM83.278 35.1722H87.5563L85.6863 30.0864H85.148L83.278 35.1722ZM98.2699 27.4089C102.888 27.4089 104.645 29.973 104.645 33.3589C104.645 36.7447 102.888 39.3089 98.2699 39.3089H92.8015V27.4089H98.2699ZM98.2557 36.9289C100.565 36.9289 101.812 35.6539 101.812 33.3589C101.812 31.0639 100.565 29.7889 98.2557 29.7889H95.649L95.6207 36.9289H98.2557ZM105.701 39.3089V27.4089H115.717V29.718H108.52V32.3247H115.462V34.3647H108.52V36.9855H115.717V39.3089H105.701ZM116.94 39.3089V27.4089H119.759V36.943H126.616V39.3089H116.94Z" fill="#001F3F"></path><defs><clipPath id="clip0_42_317"><rect width="60.5164" height="45.3873" fill="white"></rect></clipPath></defs></svg>