<?xml version="1.0" encoding="UTF-8"?>
<svg id="Layer_1" data-name="Layer 1" xmlns="http://www.w3.org/2000/svg" viewBox="0 0 1001.3 116.26">
  <defs>
    <style>
      .cls-1 {
        fill: #1e1e1e;
      }
    </style>
  </defs>
  <g>
    <path class="cls-1" d="M96.73,91.46h-8.79l-7.19-19.01h-28.75l-6.76,19.01h-8.84L62.4,23.66h8.23l26.1,67.8ZM78.15,65.32l-10.64-28.89c-.35-.94-.69-2.46-1.04-4.54h-.19c-.31,1.92-.68,3.43-1.09,4.54l-10.54,28.89h23.5Z"/>
    <path class="cls-1" d="M111.55,91.46V23.66h19.29c5.86,0,10.51,1.43,13.95,4.3,3.43,2.87,5.15,6.6,5.15,11.21,0,3.85-1.04,7.19-3.12,10.02-2.08,2.84-4.95,4.85-8.61,6.05v.19c4.57.54,8.23,2.26,10.97,5.18,2.74,2.92,4.12,6.7,4.12,11.37,0,5.8-2.08,10.5-6.24,14.09-4.16,3.59-9.41,5.39-15.74,5.39h-19.76ZM119.49,30.85v21.89h8.13c4.35,0,7.77-1.05,10.26-3.14,2.49-2.1,3.74-5.05,3.74-8.86,0-6.59-4.33-9.88-13-9.88h-9.12ZM119.49,59.88v24.39h10.78c4.66,0,8.28-1.1,10.85-3.31,2.57-2.21,3.85-5.23,3.85-9.08,0-8-5.45-12.01-16.36-12.01h-9.12Z"/>
    <path class="cls-1" d="M171.89,91.46V23.66h18.72c23.89,0,35.84,11.02,35.84,33.05,0,10.46-3.32,18.87-9.95,25.22-6.63,6.35-15.51,9.53-26.64,9.53h-17.97ZM179.84,30.85v53.43h10.12c8.89,0,15.81-2.38,20.76-7.14,4.95-4.76,7.42-11.5,7.42-20.24,0-17.37-9.23-26.05-27.7-26.05h-10.59Z"/>
    <path class="cls-1" d="M294.22,64.04c0,19.04-8.59,28.56-25.77,28.56s-24.68-9.16-24.68-27.47V23.66h7.94v40.94c0,13.9,5.86,20.85,17.59,20.85s16.97-6.71,16.97-20.14V23.66h7.94v40.38Z"/>
    <path class="cls-1" d="M351.17,91.46h-35.18V23.66h7.94v60.61h27.23v7.19Z"/>
    <path class="cls-1" d="M418.89,91.46h-8.79l-7.19-19.01h-28.75l-6.76,19.01h-8.84l26-67.8h8.23l26.1,67.8ZM400.31,65.32l-10.64-28.89c-.35-.94-.69-2.46-1.04-4.54h-.19c-.31,1.92-.68,3.43-1.09,4.54l-10.54,28.89h23.5Z"/>
    <path class="cls-1" d="M477.96,25.56l-39.71,58.72h38.77v7.19h-50.63v-2.22l39.38-58.39h-36.22v-7.19h48.41v1.89Z"/>
    <path class="cls-1" d="M529.71,91.46h-35.93V23.66h34.42v7.19h-26.48v22.55h24.49v7.14h-24.49v23.73h27.99v7.19Z"/>
    <path class="cls-1" d="M562.16,23.66v6.81h-6.62v54.18h6.62v6.81h-21.18v-6.81h6.62V30.47h-6.62v-6.81h21.18Z"/>
    <path class="cls-1" d="M622.46,25.56l-39.71,58.72h38.77v7.19h-50.63v-2.22l39.38-58.39h-36.22v-7.19h48.41v1.89Z"/>
  </g>
  <g>
    <path class="cls-1" d="M702.99,36.1h-23.92v16.64h21.99v12.39h-21.99v26.33h-15.27V23.66h39.19v12.44Z"/>
    <path class="cls-1" d="M778.62,91.46h-16.64l-4.82-15.08h-24.11l-4.77,15.08h-16.55l24.68-67.8h18.11l24.11,67.8ZM753.65,64.66l-7.28-22.79c-.54-1.7-.92-3.74-1.13-6.1h-.38c-.16,1.99-.55,3.96-1.18,5.91l-7.38,22.98h17.35Z"/>
    <path class="cls-1" d="M791.92,91.46V23.66h24.02c24.08,0,36.12,11.02,36.12,33.05,0,10.56-3.29,18.99-9.86,25.29-6.57,6.3-15.33,9.46-26.26,9.46h-24.02ZM807.19,36.1v42.98h7.57c6.62,0,11.81-1.99,15.58-5.96,3.77-3.97,5.65-9.38,5.65-16.22,0-6.46-1.87-11.54-5.6-15.25-3.73-3.7-8.97-5.56-15.72-5.56h-7.47Z"/>
    <path class="cls-1" d="M908.81,91.46h-40.66V23.66h39.1v12.44h-23.83v15.08h22.18v12.39h-22.18v15.51h25.39v12.39Z"/>
    <path class="cls-1" d="M964.9,91.46h-40.38V23.66h15.27v55.41h25.11v12.39Z"/>
  </g>
</svg>